<svg
  xmlns="http://www.w3.org/2000/svg"
  viewBox="380 250 340 320"
  preserveAspectRatio="xMidYMid meet">

  <path
        id="path2997"
        fill="#fed142"
        d="M 524.02119,538.40128 C 490.18171,537.17158 469.23673,527.1369 463.9078,509.6011
           l -0.6194,-2.03822 -0.0869,-34.37807 c -0.0994,-39.34605 -0.0645,-40.14313
           2.02994,-46.40832 3.8218,-11.4321 12.85946,-18.80326 26.99339,-22.01596
           l 3.12528,-0.71039 38.86217,-0.17214 c 27.84331,-0.12334 39.38779,-0.26278
           40.71599,-0.49179 7.78179,-1.34176 12.88656,-3.35079 17.67917,-6.95781
           5.72529,-4.30898 10.45115,-11.68459 12.56305,-19.60706
           1.58617,-5.95027 1.54362,-5.30024 1.71503,-26.20182
           l 0.15935,-19.43108 13.99581,0 13.99581,0 2.71764,0.75892
           c 14.56095,4.06625 25.13262,17.86207 29.63343,38.67107
           1.73113,8.00371 1.74921,8.29985 1.75236,28.71761
           0.003,19.87041 -0.006,20.04397 -1.39428,26.56194
           -1.3645,6.40641 -3.15056,11.61922 -5.81963,16.98521
           -5.3828,10.82172 -13.3199,18.14602 -23.35659,21.55326
           -5.73349,1.9464 -0.93423,1.78362 -57.34208,1.94488
           l -50.81975,0.14528 0,4.61997 0,4.61998
           33.69866,0.13588 33.69866,0.13589
           0.13588,16.57756 c 0.0747,9.11766 0.0421,17.36
           -0.0725,18.3163 -0.27725,2.31306 -1.25851,5.05814
           -2.66252,7.44846 -1.44585,2.46155 -5.8352,6.86423
           -8.81489,8.84166 -9.05051,6.00626 -22.84938,9.66748
           -41.03627,10.88811 -6.11918,0.41068 -14.78488,0.52882
           -21.33343,0.29086 z" />

      <path
        id="path2995"
        fill="#3571a3"
        d="M 425.9631,467.88483 c -7.64387,-1.38985 -15.17136,-6.02266
           -20.4906,-12.611 -10.07532,-12.47914 -15.16151,-33.28398
           -14.52301,-59.4057 0.3979,-16.27805 2.83146,-28.3617
           7.78205,-38.64118 6.38127,-13.25015 15.91577,-21.1079
           28.78701,-23.7245 2.81928,-0.57313 2.9606,-0.57462
           52.61546,-0.55479 27.38373,0.0109 49.98945,-0.0572
           50.23493,-0.1514 0.38956,-0.14949 0.44634,-0.75521
           0.44634,-4.76218 0,-2.52499 -0.0306,-4.62027
           -0.0679,-4.65617 -0.0374,-0.0359 -15.23233,-0.12763
           -33.7666,-0.20383 l -33.69866,-0.13854
           -0.07,-17.51427 c -0.0766,-19.18274 -0.092,-18.9603
           1.55034,-22.48323 5.69332,-12.21284 22.46461,-19.63305
           49.33937,-21.82947 1.9431,-0.1588 7.20173,-0.36064
           11.68582,-0.44852 29.75347,-0.58311 51.57919,4.85751
           63.05178,15.71727 1.27096,1.20307 2.92729,2.99882
           3.68074,3.99055 1.71323,2.25504 3.84579,6.56034
           4.66235,9.41253 l 0.62243,2.17411
           0,36.14453 c 0,33.73877 -0.0327,36.31637
           -0.49158,38.72628 -0.59212,3.10977 -2.01438,7.47916
           -3.19974,9.83009 -4.1039,8.1393 -11.66531,14.00315
           -21.68879,16.81957 -6.50861,1.8288 -3.55253,1.70865
           -46.63719,1.89559 -42.78673,0.18564 -40.20144,0.086
           -46.19977,1.78121 -11.65075,3.29273 -20.20984,12.36722
           -23.68693,25.11328 -1.5631,5.72991 -1.52841,5.19458
           -1.69958,26.22516 l -0.15925,19.56697
           -13.04464,0.0447 c -9.84739,0.0338 -13.53234,-0.0439
           -15.03438,-0.31707 z" />
</svg>
